<?xml version="1.0" encoding="utf-8"?>
<!-- Generator: Adobe Illustrator 28.2.0, SVG Export Plug-In . SVG Version: 6.00 Build 0)  -->
<svg version="1.1" baseProfile="tiny" id="Layer_1" xmlns="http://www.w3.org/2000/svg" xmlns:xlink="http://www.w3.org/1999/xlink"
	 x="0px" y="0px" viewBox="0 0 976 986" overflow="visible" xml:space="preserve">
<g>
	<g id="Background_00000013172494769465117960000015473461947257616781_" display="none">
		<path display="inline" fill="#BABAB9" d="M1279.7-264.2c2.3,165.7,2.3,165.7,4.6,331.3c0.5,414.9-0.4,829.9,0,1244.8
			c-528.4-7.2-1057-1.8-1585.5-1.5c0-787.3,0-787.3,0-1574.6C489.3-264.2,489.3-264.2,1279.7-264.2z"/>
		<path display="inline" fill="#D1D2D4" d="M1284.4,1312c0,4.6,0,4.6,0,9.3c-792.7,0-792.7,0-1585.5,0c0-5.4,0-5.4,0-10.8
			C227.4,1310.2,755.9,1304.8,1284.4,1312z"/>
		<path display="inline" fill="#BABAB9" d="M1279.7-264.2c2.3,0,2.3,0,4.6,0c0.1,110.4-0.1,220.9,0,331.3
			C1282.1-98.5,1282.1-98.5,1279.7-264.2z"/>
		<path display="inline" fill="#7A797C" d="M257.1,977.6c24.2-0.7,48.5,0.6,72.8,0c94,13.6,189.2,11.1,283.3,0
			c57.5-2.1,164.6,1.8,221.4,9.3c89.6,11.8,16.7,16.6-21.7,20.1c-133.2,12.4-331.5,15.2-466,10.8c-27.4-0.9-220.1-10.8-230.7-15.5
			c-2.5-1.1-3.1-6.9-2.3-8.5C117.1,987.4,241.2,978.1,257.1,977.6z"/>
		<path display="inline" fill="#D4444B" d="M870.2,16.1c66.7-12.2,67,91.3,1.5,80.5C830.7,89.8,830.6,23.3,870.2,16.1z"/>
	</g>
	<g>
		<g>
			<path fill="#0B4F40" d="M920.5,285.5c0.1,5.2,0,10.3,0,15.5c0,42.4,8.8,80.5-12.4,120c-15.3,28.6-231.8,281.4-271,325.9
				c-6.9,7.9-14.7,15.3-21.7,23.2c-4.4,4.9-8.2,10.8-12.4,15.5c-5.6,6.2-11.4,12.4-17,18.6c-32,35.4-51.6,68.8-103.7,79
				c-18.1,0.6-39.3,2.8-57.3-1.5c-20.5-5-57.6-36.6-75.9-51.1c-9.4-7.4-18.5-15.6-27.9-23.2c-3.6-2.9-7.1-6.3-10.8-9.3
				c-7.9-6.4-15.2-13.6-23.2-20.1c-11.7-9.4-24.1-18.3-35.6-27.9C231,732.9,115,638.1,109.2,630c-15-20.9-18.1-50.3-17-75.1
				c4.2,36.5,3.2,57.6,30.2,85.2c123.1,100.6,123.1,100.6,246.2,201.3c62,56.6,130.9,50.3,188.1-8.5c16.6-17.1,37.3-46.1,54.2-65
				c-34.8-1.9-34.8-1.9-69.7-3.9c1.1-3.6,1.6-18.9,4.6-28.6C665.5,581.1,800.4,439.3,920.5,285.5z"/>
			<path fill="#131214" d="M920.5,285.5C800.4,439.3,665.5,581.1,545.8,735.3c-3.1,9.7-3.5,25.1-4.6,28.6
				c-19.5,61-69.3,80-124.6,46.4c-14.7-8.9-259.1-199.8-270.2-212.9c-17.1-20.2-24-57.5-26.3-83.6c-0.8-8.4-1.2-28.4,1.5-34.8
				c3.3,21.1,27.6,51.2,42.6,66.6c11.9,12.2,172.6,142.7,193.5,157.9c78.3,57.2,127.9,60.8,200.5-11.6
				c84.1-100.2,171-198.2,255.5-298c2.5,3.1,8,0.8,8.5,7.7c15.6-18.3,85.6-100.3,90.6-112.3c2.5-6.1,7.1-17.5-1.5-16.3
				c2.3-3.1,4.6-7,7.7-9.3C919.2,271.6,920.4,279.2,920.5,285.5z"/>
			<path fill="#14644F" d="M121.6,479c-2.7,6.4-2.3,26.4-1.5,34.8c2.3,26.1,9.2,63.4,26.3,83.6c11.1,13.1,255.5,204,270.2,212.9
				c55.3,33.6,105.2,14.5,124.6-46.4c34.8,1.9,34.8,1.9,69.7,3.9c-16.9,18.9-37.6,48-54.2,65c-57.2,58.8-126.1,65.1-188.1,8.5
				C245.5,740.7,245.5,740.7,122.4,640c-27-27.5-26-48.7-30.2-85.2c1.3-29.3,15.2-73.7,27.9-100.6
				C123.7,460.3,120.5,471.9,121.6,479z"/>
			<g>
				<path fill="#40AA85" d="M919,263.8c-3.1,2.3-5.5,6.2-7.7,9.3C881,315,847,354.4,813.7,393.9c-84.4,99.9-171.4,197.8-255.5,298
					c-72.6,72.4-122.2,68.8-200.5,11.6c-20.9-15.3-181.7-145.8-193.5-157.9c-15-15.4-39.3-45.5-42.6-66.6
					c-1.1-7.2,2.1-18.8-1.5-24.8c27.8-59.2,67.7-88.7,135.5-77.4c53.7,8.9,155.8,102,202.8,137.8c51.4-55.3,283.5-355.6,309.7-377.8
					c4.9-4.2,10.4-8.1,16.3-10.8c30.1-14.2,73.4-7.2,99.9,12.4C930.8,172.9,917.5,215.6,919,263.8z"/>
				<path fill="#B3C879" d="M331.4,519.3c57.7-11.8,66.3,75.3,12.4,63.5C310.7,575.5,302.4,525.2,331.4,519.3z"/>
				<path fill="#B3C879" d="M261.7,462c49.7-8.4,60.9,69.7,10.8,61.9C239.4,518.8,230.9,467.2,261.7,462z"/>
				<path fill="#B3C879" d="M814.5,200.3c46.1-3.4,48.5,74.4-3.1,55.7C784.8,246.5,784.9,202.5,814.5,200.3z"/>
				<path fill="#B3C879" d="M768,246.8c46.9-8.4,55.5,70.8,3.1,54.2C745.3,292.8,740.9,251.7,768,246.8z"/>
			</g>
			<path fill="#1F1616" d="M813.7,393.9C847,354.4,881,315,911.2,273.1c8.6-1.2,4.1,10.2,1.5,16.3c-5,12-74.9,93.9-90.6,112.3
				C821.7,394.7,816.2,396.9,813.7,393.9z"/>
		</g>
		<g>
			<g>
				<path fill="#ECECED" d="M784.3,126c-5.9,2.8-11.4,6.7-16.3,10.8c-26.1,22.2-258.2,322.5-309.7,377.8
					c-47-35.8-149.1-128.9-202.8-137.8c-67.8-11.3-107.7,18.2-135.5,77.4c-12.6,26.9-26.6,71.3-27.9,100.6
					c-1.1,24.8,2.1,54.2,17,75.1c5.8,8.1,121.8,102.9,142.4,120c-25.3,12.3-54.5,26.8-66.6,54.2c-4.4,10.1-3.1,9.4-4.6,18.6
					c-6.3,36.7-4.8,76.8,27.9,100.6c-27.7-16.1-27.2-17.5-49.5-39.5C50.3,777.2,0.6,671.8,7,517C13,374.2,64.5,229.8,170.4,130.7
					C341.5-29.6,614-38.1,784.3,126z"/>
				<path fill="#9E9FA1" d="M480,65.6c65-0.6,142.7,19.2,199.7,51.1c5.2,2.9,40.8,25.3,41,28.6c0,0.8-5.6,11.8-10.1,11.6
					c-3.6-0.1-33-22-63.5-35.6c-117.2-52.4-227.4-48.8-340.6,10.8c-16.7,8.8-39.4,32.6-42.6,14.7c-2.7-14.8,66.6-49.2,81.3-55
					C386.1,75.8,436.3,66,480,65.6z"/>
				<path fill="#9E9FA1" d="M48.1,517.7c2.4-1.2,11.9,0.8,13.2,3.9c4.3,11-15.2,110.8,58.8,224.5c22,33.7,44.9,50.7,44.9,54.2
					c0,0.9-10.7,13.1-11.6,13.2c-2.4,0.2-18.3-16.5-20.9-19.4c-34.3-37-66.3-104.3-77.4-153.3C51.2,624.1,36.4,523.7,48.1,517.7z"/>
			</g>
			<g>
				<path fill="#ECECED" d="M641.8,957.4c38.6-10.6,106.8-34.3,113-80.5c98.5-52.4,169.8-194.7,176.5-302.7c0.6-8.9,2-56.1-3.9-58.1
					c-14.8-4.9-8.9,26-11.6,48.8c-14.2,119.2-66.7,219.1-161,293.4c-0.1-13.1-0.8-26.2-4.6-38.7c-1.8-5.8-4.6-10.4-7.7-15.5
					c-3.2-5.2-7.9-11.4-12.4-15.5c52.4-37.3,94.1-92,116.1-152.5c5.7-15.8,36.3-112.8,3.1-96c-9.4,93.2-58.2,184.3-137.8,236.1
					c-21.2-13.5-49.6-24.9-74.3-29.4c39.2-44.5,255.6-297.3,271-325.9c21.2-39.5,12.4-77.6,12.4-120c2.5,1.1,9,15.7,10.8,20.9
					c67.2,192.8,58,438.2-120,569C768,922.8,694.9,953.7,641.8,957.4z"/>
				<path fill="#9E9FA1" d="M754.9,876.9c0.6-4.7,0-13,0-18.6c94.3-74.3,146.8-174.2,161-293.4c2.7-22.8-3.2-53.6,11.6-48.8
					c5.9,1.9,4.4,49.1,3.9,58.1C924.7,682.2,853.4,824.5,754.9,876.9z"/>
				<path fill="#9E9FA1" d="M730.1,788.7c-0.9-0.9-14.8-10-18.6-12.4c79.6-51.8,128.4-142.9,137.8-236.1c33.3-16.8,2.6,80.2-3.1,96
					C824.2,696.7,782.5,751.4,730.1,788.7z"/>
			</g>
		</g>
		<g>
			<path fill="#131214" d="M754.9,858.4c0,5.6,0.6,13.9,0,18.6c-6.2,46.2-74.5,70-113,80.5c-123.4,33.7-320.5,31.7-433.5-34.1
				c-32.7-23.8-34.2-64-27.9-100.6c10.6,79.2,181,102.5,245.4,105.3c82,3.5,299.8-10.7,324.4-108.4
				C754,832.2,754.8,845.3,754.9,858.4z"/>
			<g>
				<path fill="#40AA85" d="M742.5,804.2c3.2,5.1,6,9.6,7.7,15.5C725.6,917.3,507.8,931.5,425.8,928c-64.4-2.7-234.8-26-245.4-105.3
					c1.6-9.2,0.2-8.5,4.6-18.6c32.6-14.4,67.1-21.4,102.2-26.3c8,6.5,15.4,13.8,23.2,20.1c-17.1,0-83.9,9.2-58.8,35.6
					c10.2,10.7,26.7,16.6,40.3,21.7c35.4,13.3,95.9,25.9,133.2,26.3c18,4.4,39.1,2.1,57.3,1.5c52-1.7,102.8-9.9,151.7-27.9
					c27.5-10.1,74.4-25.1,42.6-49.5c-16.2-12.4-53-19.2-73.5-20.1c4.2-4.7,8-10.6,12.4-15.5C659.1,776.8,700.4,791.5,742.5,804.2z"
					/>
				<path fill="#1C795F" d="M287.3,777.8c-35.1,4.9-69.6,11.9-102.2,26.3c12-27.4,41.3-41.9,66.6-54.2
					C263.2,759.5,275.6,768.4,287.3,777.8z"/>
				<path fill="#1C795F" d="M711.5,776.3c3.8,2.4,17.6,11.5,18.6,12.4c4.4,4.1,9.2,10.3,12.4,15.5c-42.1-12.7-83.3-27.3-127-34.1
					c7-7.9,14.8-15.4,21.7-23.2C661.9,751.4,690.3,762.8,711.5,776.3z"/>
				<path fill="#14644F" d="M634.1,855.3c-49,18-99.7,26.2-151.7,27.9c52.1-10.1,71.7-43.6,103.7-79c16.3,4.5,62.3,4.5,58.8,30.2
					C644.2,839.9,630.3,852.3,634.1,855.3z"/>
				<path fill="#0B4F40" d="M634.1,855.3c-3.8-2.9,10.1-15.3,10.8-20.9c3.5-25.7-42.6-25.7-58.8-30.2c5.6-6.2,11.4-12.3,17-18.6
					c20.6,0.9,57.4,7.7,73.5,20.1C708.5,830.2,661.6,845.1,634.1,855.3z"/>
				<path fill="#14644F" d="M425.1,881.6c-37.3-0.4-97.8-13-133.2-26.3c28.6-12.4,28.6-12.4,57.3-24.8
					C367.5,844.9,404.6,876.6,425.1,881.6z"/>
				<path fill="#0B4F40" d="M321.3,807.3c9.4,7.6,18.5,15.8,27.9,23.2c-28.6,12.4-28.6,12.4-57.3,24.8c-13.6-5.1-30.1-11-40.3-21.7
					C259.8,816.7,302.1,813.7,321.3,807.3z"/>
				<path fill="#07382E" d="M310.5,798c3.7,3,7.2,6.4,10.8,9.3c-19.2,6.5-61.5,9.5-69.7,26.3C226.6,807.2,293.4,797.9,310.5,798z"/>
			</g>
		</g>
	</g>
</g>
</svg>
