<?xml version="1.0" encoding="utf-8"?>
<!-- Generator: Adobe Illustrator 28.2.0, SVG Export Plug-In . SVG Version: 6.00 Build 0)  -->
<svg version="1.1" id="Layer_1" xmlns="http://www.w3.org/2000/svg" xmlns:xlink="http://www.w3.org/1999/xlink" x="0px" y="0px"
	 viewBox="0 0 1397.5 1397.5" style="enable-background:new 0 0 1397.5 1397.5;" xml:space="preserve">
<style type="text/css">
	.st0{fill-rule:evenodd;clip-rule:evenodd;fill:#1A1A1A;}
	.st1{fill-rule:evenodd;clip-rule:evenodd;fill:#31BA8E;}
	.st2{fill-rule:evenodd;clip-rule:evenodd;fill:#A8ADAB;}
	.st3{fill:none;stroke:#000000;stroke-width:101;stroke-miterlimit:10;}
</style>
<path class="st0" d="M41.2,785.4c-21.1-211.1,61.2-421.3,220.1-562.3c6.5-5.7,16.4-5.2,22.2,1.3c5.8,6.5,5.2,16.4-1.3,22.2
	C130.7,380.9,52.3,581.2,72.5,782.3c34.7,346.5,344.8,600.2,691.3,565.5c151.6-15.2,292.5-84.6,396.8-195.3c6-6.3,15.9-6.6,22.2-0.7
	c6.3,6,6.6,15.9,0.7,22.2C1074,1290.4,926,1363.2,766.9,1379.1C403.1,1415.5,77.6,1149.2,41.2,785.4L41.2,785.4z M404.6,137.5
	c0.2,1.8,0.7,3.6,1.5,5.3c3.8,7.8,13.2,11.1,21,7.3C493.2,118.3,564.2,98.4,638,91c346.5-34.7,656.6,219,691.3,565.5
	c12.3,122.7-11.2,245.1-67.9,354c-4,7.7-1,17.2,6.7,21.2c7.7,4,17.2,1,21.2-6.7c59.5-114.3,84.2-242.8,71.3-371.6
	C1324.1,289.7,998.6,23.3,634.8,59.7c-77.4,7.8-151.9,28.6-221.4,62.1C407.3,124.7,404,131.1,404.6,137.5z"/>
<path class="st0" d="M925.4,1094.1c-80.1,0-145.2-65.1-145.2-145.2s65.1-145.2,145.2-145.2c80,0,145.2,65.1,145.2,145.2
	C1070.5,1028.9,1005.4,1094.1,925.4,1094.1L925.4,1094.1z M925.4,835.1c-62.7,0-113.8,51-113.8,113.8c0,62.7,51,113.7,113.8,113.7
	c62.7,0,113.7-51,113.7-113.7C1039.1,886.2,988.1,835.1,925.4,835.1z"/>
<path class="st0" d="M925.4,1029.3c-8.7,0-15.7-7-15.7-15.7V884.2c0-8.7,7.1-15.7,15.7-15.7s15.7,7,15.7,15.7v129.4
	C941.1,1022.3,934,1029.3,925.4,1029.3z"/>
<path class="st0" d="M990.1,964.6H860.7c-8.7,0-15.7-7-15.7-15.7c0-8.7,7-15.7,15.7-15.7h129.4c8.7,0,15.7,7,15.7,15.7
	C1005.8,957.6,998.8,964.6,990.1,964.6z"/>
<path class="st0" d="M1124.1,1104.5c-5.8-57.7,36.4-109.3,94.1-115.1c57.7-5.8,109.3,36.4,115.1,94.1
	c5.8,57.7-36.5,109.3-94.1,115.1C1181.5,1204.4,1129.8,1162.2,1124.1,1104.5L1124.1,1104.5z M1302,1086.7c-4-40.4-40.3-70.1-80.7-66
	s-70.1,40.2-66,80.7s40.3,70.1,80.7,66C1276.4,1163.4,1306.1,1127.2,1302,1086.7z"/>
<path class="st0" d="M237.9,190.7C232.1,133,274.4,81.4,332,75.6c57.7-5.8,109.3,36.4,115.1,94.1c5.8,57.7-36.5,109.3-94.1,115.1
	S243.7,248.4,237.9,190.7L237.9,190.7z M415.9,172.9c-4-40.4-40.2-70.1-80.7-66c-40.5,4-70.1,40.3-66,80.7c4,40.5,40.2,70.1,80.7,66
	S419.9,213.3,415.9,172.9z"/>
<path class="st1" d="M335.2,106.9c-40.5,4-70.1,40.3-66,80.7c4,40.5,40.2,70.1,80.7,66s70.1-40.3,66-80.7
	C411.8,132.5,375.6,102.8,335.2,106.9z"/>
<path class="st2" d="M821.5,995.3c17.8,39.7,57.6,67.4,103.9,67.4c62.7,0,113.7-51,113.7-113.7c0-62.7-51-113.8-113.7-113.8
	c-16.2,0-31.6,3.4-45.5,9.5c-26,11.4-46.9,32.2-58.5,58.1c0,0.1-0.1,0.1-0.1,0.2c-6.3,14.2-9.7,29.8-9.7,46
	c0,16.1,3.4,31.7,9.7,45.8C821.3,994.9,821.4,995.1,821.5,995.3L821.5,995.3z M860.7,964.6c-8.7,0-15.7-7-15.7-15.7
	c0-8.7,7-15.7,15.7-15.7h49v-49c0-8.7,7.1-15.7,15.7-15.7s15.7,7,15.7,15.7v49h49c8.7,0,15.7,7,15.7,15.7c0,8.7-7,15.7-15.7,15.7
	h-49v49c0,8.7-7,15.7-15.7,15.7s-15.7-7-15.7-15.7v-49H860.7z"/>
<path class="st1" d="M1221.3,1020.7c-40.4,4-70.1,40.2-66,80.7s40.3,70.1,80.7,66c40.4-4,70.1-40.3,66-80.7
	C1298,1046.3,1261.8,1016.7,1221.3,1020.7z"/>
<path class="st3" d="M108.8,553.6c0,37,7.5,72.3,21.1,104.4c13.6,32.1,33.2,61,57.5,85.3c24.3,24.3,53.2,43.9,85.3,57.5
	S340,821.9,377,821.9s72.3-7.5,104.4-21.1s61-33.2,85.3-57.5c24.3-24.3,43.9-53.2,57.5-85.3s21.1-67.4,21.1-104.4
	s-7.5-72.3-21.1-104.4c-13.6-32.1-33.2-61-57.5-85.3s-53.2-43.9-85.2-57.5s-67.4-21.1-104.4-21.1s-72.3,7.5-104.4,21.1
	s-61,33.2-85.3,57.5s-44,53.2-57.5,85.3S108.8,516.6,108.8,553.6z"/>
<g>
	<path class="st1" d="M398.3,647.3l412.6-505.2c10.7-11.5,28.6-12.2,40.1-1.5c11.5,10.7,12.2,28.6,1.5,40.1L425.9,711.8
		c-4.4,4.7-10.3,7.8-16.6,8.7c-1.1,0.2-2.2,0.3-3.3,0.3c-7.6,0.2-15-2.6-20.5-7.8L177.4,516c-11.4-10.8-11.8-28.7-1-40.1
		c10.8-11.4,28.8-11.8,40.1-1L398.3,647.3z"/>
	<path d="M405.2,734.8c-10.8,0-21.4-4.2-29.2-11.7l-208.2-197c-8.2-7.8-12.9-18.3-13.2-29.6c-0.3-11.4,3.8-22.1,11.6-30.4
		c7.8-8.2,18.3-12.9,29.6-13.2c11.3-0.3,22.1,3.8,30.3,11.7l170.8,162.1l403.4-493.9l0.3-0.3c7.7-8.3,18.2-13.1,29.5-13.5
		c11.3-0.4,22.1,3.6,30.4,11.2c17,15.8,18.1,42.4,2.6,59.5L436.5,721l-0.4,0.4c-6.5,7-15.4,11.6-24.8,13c-1.7,0.2-3.3,0.4-4.9,0.4
		C406,734.8,405.6,734.8,405.2,734.8z M196.9,481.1c-0.1,0-0.2,0-0.4,0c-3.8,0.1-7.4,1.7-10,4.5c-2.7,2.8-4,6.4-3.9,10.3
		c0.1,3.8,1.7,7.4,4.5,10l208.2,197c2.8,2.7,6.5,4.1,10.4,3.9h0.1c0.5,0,1-0.1,1.6-0.1c3.1-0.4,6-1.9,8.2-4.2l426.5-531l0.3-0.4
		c5.4-5.8,5.1-14.9-0.8-20.3c-5.7-5.3-14.6-5-20,0.5L399.6,667.9L206.8,485C204.1,482.5,200.6,481.1,196.9,481.1z"/>
</g>
</svg>
