<svg version="1.1" xmlns="http://www.w3.org/2000/svg" xmlns:xlink="http://www.w3.org/1999/xlink" viewBox="0 0 3873 3873"
  width="50%" height="50%">
  <path fill-rule="evenodd" fill="#1A1A1A" d="M32.6,2147.9c-61-609.9,176.7-1217.3,636-1624.7c18.8-16.6,47.4-14.9,64.1,3.8
	c16.7,18.8,14.9,47.4-3.8,64.1C291.3,979.2,64.8,1557.8,123,2138.8C223.2,3140,1119.2,3872.9,2120.3,3772.8
	c438-43.8,845.2-244.3,1146.5-564.4c17.2-18.2,45.9-19.1,64.2-1.9c18.3,17.2,19.1,45.9,1.9,64.1
	c-316.3,336.1-743.7,546.6-1203.6,592.6C1078.4,3968.2,137.8,3198.8,32.6,2147.9L32.6,2147.9z M1082.7,275.9
	c0.5,5.2,1.9,10.3,4.2,15.2c10.9,22.6,38,32,60.6,21.2c191.2-92,396.3-149.5,609.4-170.8C2758,41.3,3654,774.3,3754.1,1775.4
	c35.5,354.5-32.3,708.1-196.1,1022.8c-11.5,22.2-2.9,49.6,19.3,61.2c22.2,11.6,49.6,2.9,61.2-19.3
	c172-330.3,243.2-701.6,205.9-1073.7C3739.3,715.5,2798.8-54,1747.8,51.2c-223.6,22.4-438.9,82.7-639.7,179.3
	C1090.5,239,1080.8,257.5,1082.7,275.9z" />
  <path fill-rule="evenodd" fill="#1A1A1A" d="M3161.3,3069.8c-16.7-166.6,105.3-315.8,272-332.5c166.7-16.7,315.8,105.3,332.5,272
	c16.7,166.7-105.4,315.8-272,332.5C3327.2,3358.5,3178,3236.5,3161.3,3069.8L3161.3,3069.8z M3675.5,3018.4
	c-11.7-116.8-116.3-202.4-233.1-190.7c-116.8,11.7-202.4,116.2-190.7,233.1c11.7,116.9,116.3,202.4,233.1,190.7
	C3601.6,3239.8,3687.2,3135.2,3675.5,3018.4z" />
  <path fill-rule="evenodd" fill="#1A1A1A" d="M601,429.5c-16.7-166.6,105.4-315.8,272-332.5c166.7-16.7,315.8,105.3,332.5,272
	s-105.4,315.8-272,332.5C766.9,718.2,617.7,596.2,601,429.5L601,429.5z M1115.2,378.1C1103.5,261.3,999,175.7,882.1,187.4
	c-116.9,11.7-202.4,116.3-190.7,233.1c11.7,116.9,116.2,202.4,233.1,190.7C1041.4,599.5,1126.9,495,1115.2,378.1z" />
  <path fill-rule="evenodd" fill="#31BA8E" d="M882.1,187.4c-116.9,11.7-202.4,116.3-190.7,233.1c11.7,116.9,116.2,202.4,233.1,190.7
	c116.9-11.7,202.4-116.3,190.7-233.1C1103.5,261.3,999,175.7,882.1,187.4z" />
  <g>
    <path fill-rule="evenodd" fill="#1A1A1A" d="M2587.3,3039.6c-231.3,0-419.5-188.2-419.5-419.4c0-231.2,188.2-419.4,419.5-419.4
		c231.2,0,419.4,188.2,419.4,419.4C3006.7,2851.4,2818.5,3039.6,2587.3,3039.6L2587.3,3039.6z M2587.3,2291.5
		c-181.2,0-328.7,147.4-328.7,328.7c0,181.2,147.4,328.6,328.7,328.6c181.2,0,328.6-147.4,328.6-328.6
		C2915.9,2438.9,2768.5,2291.5,2587.3,2291.5z" />
    <path fill-rule="evenodd" fill="#1A1A1A" d="M2587.3,2852.6c-25.1,0-45.4-20.3-45.4-45.4v-374.1c0-25,20.4-45.4,45.4-45.4
		c25,0,45.4,20.3,45.4,45.4v374C2632.6,2832.2,2612.3,2852.6,2587.3,2852.6z" />
    <path fill-rule="evenodd" fill="#1A1A1A" d="M2774.2,2665.6h-373.9c-25.1,0-45.4-20.3-45.4-45.4c0-25.1,20.3-45.4,45.4-45.4h373.9
		c25.1,0,45.4,20.3,45.4,45.4C2819.6,2645.2,2799.3,2665.6,2774.2,2665.6z" />
    <path fill-rule="evenodd" fill="#A8ADAB" d="M2287.1,2754.1c51.4,114.7,166.5,194.7,300.1,194.7c181.2,0,328.6-147.4,328.6-328.6
		c0-181.2-147.4-328.7-328.6-328.7c-46.7,0-91.2,9.8-131.5,27.4c-75,32.9-135.6,93.1-168.9,167.9c-0.1,0.2-0.2,0.4-0.2,0.5
		c-18.1,41.1-28,86.2-28,132.8c0,46.5,9.8,91.5,27.9,132.4C2286.7,2753.1,2286.9,2753.6,2287.1,2754.1L2287.1,2754.1z
		 M2400.3,2665.6c-25.1,0-45.4-20.3-45.4-45.4c0-25.1,20.3-45.4,45.4-45.4h141.6v-141.6c0-25,20.4-45.4,45.4-45.4
		c25,0,45.4,20.3,45.4,45.4v141.6h141.6c25.1,0,45.4,20.3,45.4,45.4c0,25-20.3,45.4-45.4,45.4h-141.6v141.6
		c0,25.1-20.3,45.4-45.4,45.4s-45.4-20.3-45.4-45.4v-141.6H2400.3z" />
  </g>
  <path fill-rule="evenodd" fill="#31BA8E" d="M3442.4,2827.7c-116.8,11.7-202.4,116.2-190.7,233.1
	c11.7,116.9,116.3,202.4,233.1,190.7c116.8-11.7,202.4-116.3,190.7-233.1C3663.8,2901.5,3559.2,2816,3442.4,2827.7z" />
</svg>